<svg width="24" height="24" viewBox="0 0 24 24" fill="none" xmlns="http://www.w3.org/2000/svg">
<path d="M9.99107 13.9821C9.99107 15.0161 9.24107 15.3429 8.31964 15.3429H5.90357V12.5089H8.36786C9.36429 12.5143 9.99107 12.9268 9.99107 13.9821V13.9821ZM9.57857 9.57321C9.57857 8.625 8.84464 8.4 8.03036 8.4H5.90893V10.8H8.19643C9.00536 10.8 9.57857 10.4464 9.57857 9.57321V9.57321ZM16.6661 10.8161C15.6857 10.8161 15.0321 11.4268 14.9679 12.4071H18.3C18.2089 11.4161 17.6946 10.8161 16.6661 10.8161ZM24 2.57143V21.4286C24 22.8482 22.8482 24 21.4286 24H2.57143C1.15179 24 0 22.8482 0 21.4286V2.57143C0 1.15179 1.15179 0 2.57143 0H21.4286C22.8482 0 24 1.15179 24 2.57143ZM14.5554 8.19643H18.7232V7.18393H14.5554V8.19643ZM12.2518 14.1054C12.2518 12.8143 11.6411 11.7 10.3768 11.3411C11.2982 10.9018 11.7804 10.3929 11.7804 9.35893C11.7804 7.3125 10.2536 6.81429 8.49107 6.81429H3.64286V17.1H8.63036C10.5 17.0893 12.2518 16.1946 12.2518 14.1054V14.1054ZM20.3571 13.3125C20.3571 11.1107 19.0661 9.27321 16.7357 9.27321C14.4643 9.27321 12.9268 10.9768 12.9268 13.2161C12.9268 15.5357 14.3893 17.1268 16.7357 17.1268C18.5143 17.1268 19.6661 16.3286 20.2232 14.6196H18.4179C18.2196 15.2571 17.4214 15.5893 16.8 15.5893C15.6 15.5893 14.9732 14.8875 14.9732 13.6982H20.3411C20.3464 13.575 20.3571 13.4411 20.3571 13.3125Z" fill="white"/>
</svg>
