<svg width="24" height="24" viewBox="0 0 24 24" fill="none" xmlns="http://www.w3.org/2000/svg">
<path d="M20.6429 1.5H3.35714C2.05531 1.5 1 2.50734 1 3.75V20.25C1 21.4927 2.05531 22.5 3.35714 22.5H20.6429C21.9447 22.5 23 21.4927 23 20.25V3.75C23 2.50734 21.9447 1.5 20.6429 1.5ZM6.5 19.5C5.19817 19.5 4.14286 18.4927 4.14286 17.25C4.14286 16.0073 5.19817 15 6.5 15C7.80183 15 8.85714 16.0073 8.85714 17.25C8.85714 18.4927 7.80183 19.5 6.5 19.5ZM14.236 19.5H12.5499C12.2547 19.5 12.0072 19.2827 11.988 19.0015C11.732 15.2492 8.58769 12.2553 4.66501 12.0114C4.37052 11.9931 4.14286 11.7568 4.14286 11.4751V9.86564C4.14286 9.55931 4.41138 9.31359 4.73185 9.33009C10.1604 9.61013 14.504 13.7615 14.797 18.9378C14.8143 19.2437 14.5569 19.5 14.236 19.5ZM19.2954 19.5H17.6093C17.3068 19.5 17.0605 19.2712 17.0482 18.9826C16.7733 12.5825 11.3908 7.4438 4.68495 7.18134C4.3826 7.16948 4.14286 6.93445 4.14286 6.64566V5.03625C4.14286 4.73372 4.40499 4.4895 4.72168 4.50038C12.9633 4.7828 19.5624 11.1187 19.8568 18.9475C19.8681 19.2498 19.6123 19.5 19.2954 19.5Z" fill="white"/>
</svg>
