<svg width="24" height="24" viewBox="0 0 24 24" fill="none" xmlns="http://www.w3.org/2000/svg">
<path d="M20.6429 1.5H3.35714C2.05531 1.5 1 2.50734 1 3.75V20.25C1 21.4927 2.05531 22.5 3.35714 22.5H20.6429C21.9447 22.5 23 21.4927 23 20.25V3.75C23 2.50734 21.9447 1.5 20.6429 1.5ZM20.3482 20.25H3.65179C3.57364 20.25 3.4987 20.2204 3.44344 20.1676C3.38819 20.1149 3.35714 20.0433 3.35714 19.9688V4.03125C3.35714 3.95666 3.38819 3.88512 3.44344 3.83238C3.4987 3.77963 3.57364 3.75 3.65179 3.75H20.3482C20.4264 3.75 20.5013 3.77963 20.5566 3.83238C20.6118 3.88512 20.6429 3.95666 20.6429 4.03125V19.9688C20.6429 20.0433 20.6118 20.1149 20.5566 20.1676C20.5013 20.2204 20.4264 20.25 20.3482 20.25ZM9.64286 16.125C9.64286 17.1605 8.7634 18 7.67857 18C6.59375 18 5.71429 17.1605 5.71429 16.125C5.71429 15.0895 6.59375 14.25 7.67857 14.25C8.7634 14.25 9.64286 15.0895 9.64286 16.125ZM14.2376 17.5502C14.0032 13.4092 10.5284 10.0881 6.18547 9.86409C5.92913 9.85087 5.71429 10.0475 5.71429 10.2925V11.5801C5.71429 11.8055 5.89642 11.9945 6.13204 12.0091C9.27018 12.2042 11.7856 14.5994 11.9904 17.6012C12.0058 17.8261 12.2038 18 12.4399 18H13.7888C14.0455 18 14.2515 17.7949 14.2376 17.5502ZM18.2854 17.558C18.0499 11.2949 12.7707 6.22622 6.17737 6.00028C5.92402 5.99161 5.71429 6.18698 5.71429 6.429V7.71652C5.71429 7.94756 5.9061 8.13558 6.1479 8.14505C11.5126 8.355 15.8186 12.466 16.0385 17.586C16.0484 17.8169 16.2454 18 16.4874 18H17.8362C18.0898 18 18.2945 17.7998 18.2854 17.558Z" fill="white"/>
</svg>
