<svg width="24" height="24" viewBox="0 0 24 24" fill="none" xmlns="http://www.w3.org/2000/svg">
<path d="M21.4286 0H2.57143C1.15125 0 0 1.15125 0 2.57143V21.4286C0 22.8488 1.15125 24 2.57143 24H21.4286C22.8488 24 24 22.8488 24 21.4286V2.57143C24 1.15125 22.8488 0 21.4286 0ZM21.1071 21.4286H2.89286C2.80761 21.4286 2.72585 21.3947 2.66557 21.3344C2.60529 21.2741 2.57143 21.1924 2.57143 21.1071V2.89286C2.57143 2.80761 2.60529 2.72585 2.66557 2.66557C2.72585 2.60529 2.80761 2.57143 2.89286 2.57143H21.1071C21.1924 2.57143 21.2741 2.60529 21.3344 2.66557C21.3947 2.72585 21.4286 2.80761 21.4286 2.89286V21.1071C21.4286 21.1924 21.3947 21.2741 21.3344 21.3344C21.2741 21.3947 21.1924 21.4286 21.1071 21.4286V21.4286ZM9.42857 16.7143C9.42857 17.8977 8.46916 18.8571 7.28571 18.8571C6.10227 18.8571 5.14286 17.8977 5.14286 16.7143C5.14286 15.5308 6.10227 14.5714 7.28571 14.5714C8.46916 14.5714 9.42857 15.5308 9.42857 16.7143ZM14.441 18.3431C14.1853 13.6105 10.3946 9.81493 5.65688 9.55896C5.37723 9.54386 5.14286 9.76854 5.14286 10.0486V11.5201C5.14286 11.7777 5.34155 11.9937 5.59859 12.0104C9.02202 12.2334 11.7661 14.9707 11.9896 18.4014C12.0063 18.6584 12.2223 18.8571 12.4799 18.8571H13.9514C14.2315 18.8571 14.4561 18.6228 14.441 18.3431V18.3431ZM18.8568 18.352C18.5999 11.1942 12.8408 5.40139 5.64804 5.14318C5.37166 5.13327 5.14286 5.35655 5.14286 5.63314V7.10459C5.14286 7.36864 5.35211 7.58352 5.61589 7.59434C11.4683 7.83429 16.1657 12.5326 16.4056 18.3841C16.4164 18.6479 16.6313 18.8571 16.8954 18.8571H18.3668C18.6434 18.8571 18.8667 18.6283 18.8568 18.352V18.352Z" fill="white"/>
</svg>
