<svg width="24" height="24" viewBox="0 0 24 24" fill="none" xmlns="http://www.w3.org/2000/svg">
<g clip-path="url(#clip0)">
<path d="M16.5 4.5C16.5 2.01469 14.4853 0 12 0C9.51469 0 7.5 2.01469 7.5 4.5C7.5 6.98531 9.51469 9 12 9C14.4853 9 16.5 6.98531 16.5 4.5ZM10.9495 11.3016C8.16844 9.59906 3.66375 9.13125 1.39687 9.00234C0.635156 8.95922 0 9.53953 0 10.2722V20.7159C0 21.3877 0.543281 21.9478 1.24172 21.9839C3.28828 22.0912 7.42875 22.4845 10.2905 23.9259C10.7297 24.1472 11.2505 23.8458 11.2505 23.3695V11.8387C11.25 11.6198 11.1417 11.4192 10.9495 11.3016ZM22.6031 9.00234C20.3367 9.13078 15.8316 9.59906 13.0509 11.3016C12.8588 11.4192 12.7505 11.6278 12.7505 11.8467V23.3681C12.7505 23.8458 13.2727 24.1477 13.7133 23.9259C16.5745 22.4859 20.7127 22.0927 22.7587 21.9853C23.4572 21.9487 24.0005 21.3886 24.0005 20.7169V10.2722C24 9.53953 23.3648 8.95922 22.6031 9.00234Z" fill="white"/>
</g>
<defs>
<clipPath id="clip0">
<rect width="24" height="24" fill="white"/>
</clipPath>
</defs>
</svg>
