<svg width="24" height="24" viewBox="0 0 24 24" fill="none" xmlns="http://www.w3.org/2000/svg">
<path d="M4.83214 10.5107C5.30893 8.23929 6.83571 6.34821 8.8875 5.38393C9.08036 5.64643 10.3875 7.4625 11.6036 9.61607C8.175 10.5268 5.15893 10.5161 4.83214 10.5107V10.5107ZM16.8536 6.53571C15.0536 4.93929 12.6054 4.33393 10.2857 4.89643C10.4893 5.16964 11.8179 6.98036 13.0179 9.18214C15.6214 8.20179 16.7196 6.72321 16.8536 6.53571ZM7.50536 17.7857C9.675 19.4786 12.5036 19.7518 14.8607 18.75C14.7536 18.1071 14.325 15.8679 13.2964 13.2C10.3446 14.2071 8.27143 16.2214 7.50536 17.7857ZM12.7982 11.9893C12.6161 11.5714 12.4125 11.1589 12.2036 10.7464C8.55 11.8393 5.00357 11.7964 4.68214 11.7857C4.68214 11.8607 4.67679 11.9357 4.67679 12.0107C4.67679 13.8911 5.38929 15.6054 6.55714 16.9071C7.74643 14.8768 10.1518 12.7339 12.7982 11.9893V11.9893ZM14.6679 12.8625C15.6268 15.4929 16.0125 17.6357 16.0875 18.0804C17.7321 16.9714 18.9 15.2089 19.2268 13.1732C18.9804 13.0929 16.9607 12.4929 14.6679 12.8625V12.8625ZM13.5804 10.2696C13.8375 10.7946 14.025 11.2232 14.2232 11.7054C16.6607 11.4 19.0821 11.8875 19.3232 11.9411C19.3071 10.2107 18.6911 8.625 17.6679 7.38214C17.5125 7.59107 16.2857 9.16071 13.5804 10.2696V10.2696ZM24 2.57143V21.4286C24 22.8482 22.8482 24 21.4286 24H2.57143C1.15179 24 0 22.8482 0 21.4286V2.57143C0 1.15179 1.15179 0 2.57143 0H21.4286C22.8482 0 24 1.15179 24 2.57143ZM20.5714 12C20.5714 7.275 16.725 3.42857 12 3.42857C7.275 3.42857 3.42857 7.275 3.42857 12C3.42857 16.725 7.275 20.5714 12 20.5714C16.725 20.5714 20.5714 16.725 20.5714 12Z" fill="white"/>
</svg>
