<svg width="24" height="24" viewBox="0 0 24 24" fill="none" xmlns="http://www.w3.org/2000/svg">
<path d="M21.4286 0H2.57143C1.15179 0 0 1.15179 0 2.57143V21.4286C0 22.8482 1.15179 24 2.57143 24H21.4286C22.8482 24 24 22.8482 24 21.4286V2.57143C24 1.15179 22.8482 0 21.4286 0ZM14.8554 20.5554C14.4054 20.6357 14.2393 20.3571 14.2393 20.1268C14.2393 19.8375 14.25 18.3589 14.25 17.1643C14.25 16.3286 13.9714 15.7982 13.6446 15.5196C15.6268 15.3 17.7161 15.0268 17.7161 11.6036C17.7161 10.6286 17.3679 10.1411 16.8 9.51429C16.8911 9.28393 17.1964 8.33571 16.7089 7.10357C15.9643 6.87321 14.2607 8.0625 14.2607 8.0625C13.5536 7.86429 12.7875 7.7625 12.0321 7.7625C11.2768 7.7625 10.5107 7.86429 9.80357 8.0625C9.80357 8.0625 8.1 6.87321 7.35536 7.10357C6.86786 8.33036 7.16786 9.27857 7.26429 9.51429C6.69643 10.1411 6.42857 10.6286 6.42857 11.6036C6.42857 15.0107 8.42679 15.3 10.4089 15.5196C10.1518 15.75 9.92143 16.1464 9.84107 16.7143C9.33214 16.9446 8.03036 17.3411 7.25357 15.9696C6.76607 15.1232 5.8875 15.0536 5.8875 15.0536C5.01964 15.0429 5.82857 15.6 5.82857 15.6C6.40714 15.8679 6.81429 16.8964 6.81429 16.8964C7.33393 18.4875 9.81964 17.9518 9.81964 17.9518C9.81964 18.6964 9.83036 19.9071 9.83036 20.1268C9.83036 20.3571 9.66964 20.6357 9.21429 20.5554C5.67857 19.3714 3.20357 16.0071 3.20357 12.075C3.20357 7.15714 6.96429 3.42321 11.8821 3.42321C16.8 3.42321 20.7857 7.15714 20.7857 12.075C20.7911 16.0071 18.3911 19.3768 14.8554 20.5554ZM9.6 17.2821C9.49821 17.3036 9.40179 17.2607 9.39107 17.1911C9.38036 17.1107 9.45 17.0411 9.55179 17.0196C9.65357 17.0089 9.75 17.0518 9.76071 17.1214C9.77679 17.1911 9.70714 17.2607 9.6 17.2821ZM9.09107 17.2339C9.09107 17.3036 9.01071 17.3625 8.90357 17.3625C8.78571 17.3732 8.70536 17.3143 8.70536 17.2339C8.70536 17.1643 8.78571 17.1054 8.89286 17.1054C8.99464 17.0946 9.09107 17.1536 9.09107 17.2339ZM8.35714 17.175C8.33571 17.2446 8.22857 17.2768 8.1375 17.2446C8.03571 17.2232 7.96607 17.1429 7.9875 17.0732C8.00893 17.0036 8.11607 16.9714 8.20714 16.9929C8.31429 17.025 8.38393 17.1054 8.35714 17.175ZM7.69821 16.8857C7.65 16.9446 7.54821 16.9339 7.46786 16.8536C7.3875 16.7839 7.36607 16.6821 7.41964 16.6339C7.46786 16.575 7.56964 16.5857 7.65 16.6661C7.71964 16.7357 7.74643 16.8429 7.69821 16.8857ZM7.21071 16.3982C7.1625 16.4304 7.07143 16.3982 7.0125 16.3179C6.95357 16.2375 6.95357 16.1464 7.0125 16.1089C7.07143 16.0607 7.1625 16.0982 7.21071 16.1786C7.26964 16.2589 7.26964 16.3554 7.21071 16.3982V16.3982ZM6.8625 15.8786C6.81429 15.9268 6.73393 15.9 6.675 15.8464C6.61607 15.7768 6.60536 15.6964 6.65357 15.6589C6.70179 15.6107 6.78214 15.6375 6.84107 15.6911C6.9 15.7607 6.91071 15.8411 6.8625 15.8786ZM6.50357 15.4821C6.48214 15.5304 6.4125 15.5411 6.35357 15.5036C6.28393 15.4714 6.25179 15.4125 6.27321 15.3643C6.29464 15.3321 6.35357 15.3161 6.42321 15.3429C6.49286 15.3804 6.525 15.4393 6.50357 15.4821Z" fill="white"/>
</svg>
