<svg width="24" height="24" viewBox="0 0 24 24" fill="none" xmlns="http://www.w3.org/2000/svg">
<path d="M21.4286 0H2.57143C1.15125 0 0 1.15125 0 2.57143V21.4286C0 22.8488 1.15125 24 2.57143 24H21.4286C22.8488 24 24 22.8488 24 21.4286V2.57143C24 1.15125 22.8488 0 21.4286 0ZM12 4.60714C13.2426 4.60714 14.25 5.6145 14.25 6.85714C14.25 8.09979 13.2426 9.10714 12 9.10714C10.7574 9.10714 9.75 8.09979 9.75 6.85714C9.75 5.6145 10.7574 4.60714 12 4.60714ZM15 18.2143C15 18.5693 14.7122 18.8571 14.3571 18.8571H9.64286C9.28784 18.8571 9 18.5693 9 18.2143V16.9286C9 16.5736 9.28784 16.2857 9.64286 16.2857H10.2857V12.8571H9.64286C9.28784 12.8571 9 12.5693 9 12.2143V10.9286C9 10.5736 9.28784 10.2857 9.64286 10.2857H13.0714C13.4264 10.2857 13.7143 10.5736 13.7143 10.9286V16.2857H14.3571C14.7122 16.2857 15 16.5736 15 16.9286V18.2143Z" fill="white"/>
</svg>
