<svg width="24" height="24" viewBox="0 0 24 24" fill="none" xmlns="http://www.w3.org/2000/svg">
<path d="M24 2.57143V21.4286C24 22.8488 22.8488 24 21.4286 24H2.57143C1.15125 24 0 22.8488 0 21.4286V2.57143C0 1.15125 1.15125 0 2.57143 0H21.4286C22.8488 0 24 1.15125 24 2.57143ZM21.4286 21.1071V2.89286C21.4286 2.80761 21.3947 2.72585 21.3344 2.66557C21.2741 2.60529 21.1924 2.57143 21.1071 2.57143H2.89286C2.80761 2.57143 2.72585 2.60529 2.66557 2.66557C2.60529 2.72585 2.57143 2.80761 2.57143 2.89286V21.1071C2.57143 21.1924 2.60529 21.2741 2.66557 21.3344C2.72585 21.3947 2.80761 21.4286 2.89286 21.4286H21.1071C21.1924 21.4286 21.2741 21.3947 21.3344 21.3344C21.3947 21.2741 21.4286 21.1924 21.4286 21.1071V21.1071ZM12 4.60714C13.2426 4.60714 14.25 5.6145 14.25 6.85714C14.25 8.09979 13.2426 9.10714 12 9.10714C10.7574 9.10714 9.75 8.09979 9.75 6.85714C9.75 5.6145 10.7574 4.60714 12 4.60714ZM15 18.2143C15 18.5693 14.7122 18.8571 14.3571 18.8571H9.64286C9.28784 18.8571 9 18.5693 9 18.2143V16.9286C9 16.5736 9.28784 16.2857 9.64286 16.2857H10.2857V12.8571H9.64286C9.28784 12.8571 9 12.5693 9 12.2143V10.9286C9 10.5736 9.28784 10.2857 9.64286 10.2857H13.0714C13.4264 10.2857 13.7143 10.5736 13.7143 10.9286V16.2857H14.3571C14.7122 16.2857 15 16.5736 15 16.9286V18.2143Z" fill="white"/>
</svg>
