<svg width="25" height="24" viewBox="0 0 25 24" fill="none" xmlns="http://www.w3.org/2000/svg">
<path d="M21.6429 1.5H4.35714C3.05531 1.5 2 2.50734 2 3.75V20.25C2 21.4927 3.05531 22.5 4.35714 22.5H21.6429C22.9447 22.5 24 21.4927 24 20.25V3.75C24 2.50734 22.9447 1.5 21.6429 1.5ZM22.4286 20.25C22.4286 20.6635 22.0761 21 21.6429 21H4.35714C3.92392 21 3.57143 20.6635 3.57143 20.25V3.75C3.57143 3.33647 3.92392 3 4.35714 3H21.6429C22.0761 3 22.4286 3.33647 22.4286 3.75V20.25ZM13 15.9375C12.2406 15.9375 11.625 16.5251 11.625 17.25C11.625 17.9749 12.2406 18.5625 13 18.5625C13.7594 18.5625 14.375 17.9749 14.375 17.25C14.375 16.5251 13.7594 15.9375 13 15.9375ZM13.3767 14.8125H12.5909C12.2655 14.8125 12.0017 14.5606 12.0017 14.25V14.2321C12.0017 10.9348 15.8045 11.25 15.8045 9.19739C15.8045 8.25914 14.9323 7.3125 12.9838 7.3125C11.5526 7.3125 10.8101 7.7648 10.0761 8.65744C9.8842 8.89087 9.53328 8.93845 9.27822 8.76881L8.63324 8.33991C8.35702 8.1562 8.29637 7.78814 8.50336 7.53473C9.54571 6.25847 10.7824 5.4375 12.9838 5.4375C15.5531 5.4375 17.7688 6.83208 17.7688 9.19739C17.7688 12.3574 13.9659 12.1903 13.9659 14.2321V14.25C13.9659 14.5606 13.7021 14.8125 13.3767 14.8125Z" fill="white"/>
</svg>
