<svg width="24" height="24" viewBox="0 0 24 24" fill="none" xmlns="http://www.w3.org/2000/svg">
<path d="M21.4286 0H2.57143C1.15125 0 0 1.15125 0 2.57143V21.4286C0 22.8488 1.15125 24 2.57143 24H21.4286C22.8488 24 24 22.8488 24 21.4286V2.57143C24 1.15125 22.8488 0 21.4286 0ZM22.2857 21.4286C22.2857 21.9012 21.9012 22.2857 21.4286 22.2857H2.57143C2.09882 22.2857 1.71429 21.9012 1.71429 21.4286V2.57143C1.71429 2.09882 2.09882 1.71429 2.57143 1.71429H21.4286C21.9012 1.71429 22.2857 2.09882 22.2857 2.57143V21.4286ZM12 16.5C11.1716 16.5 10.5 17.1716 10.5 18C10.5 18.8284 11.1716 19.5 12 19.5C12.8284 19.5 13.5 18.8284 13.5 18C13.5 17.1716 12.8284 16.5 12 16.5ZM12.4109 15.2143H11.5538C11.1987 15.2143 10.9109 14.9264 10.9109 14.5714V14.551C10.9109 10.7826 15.0595 11.1429 15.0595 8.79702C15.0595 7.72473 14.108 6.64286 11.9823 6.64286C10.421 6.64286 9.61098 7.15977 8.8103 8.17993C8.60095 8.44671 8.21812 8.50109 7.93988 8.30721L7.23627 7.81704C6.93493 7.60709 6.86877 7.18645 7.09457 6.89684C8.23168 5.43825 9.58082 4.5 11.9823 4.5C14.7852 4.5 17.2023 6.0938 17.2023 8.79702C17.2023 12.4085 13.0538 12.2175 13.0538 14.551V14.5714C13.0538 14.9264 12.7659 15.2143 12.4109 15.2143V15.2143Z" fill="white"/>
</svg>
