<svg width="24" height="24" viewBox="0 0 24 24" fill="none" xmlns="http://www.w3.org/2000/svg">
<path d="M21.4286 0H2.57143C1.15125 0 0 1.15125 0 2.57143V21.4286C0 22.8488 1.15125 24 2.57143 24H21.4286C22.8488 24 24 22.8488 24 21.4286V2.57143C24 1.15125 22.8488 0 21.4286 0ZM12 21.3214C10.6412 21.3214 9.53571 20.2159 9.53571 18.8571C9.53571 17.4983 10.6412 16.3929 12 16.3929C13.3588 16.3929 14.4643 17.4983 14.4643 18.8571C14.4643 20.2159 13.3588 21.3214 12 21.3214ZM14.1429 14.2857V14.3571C14.1429 14.7122 13.855 15 13.5 15H10.5C10.145 15 9.85714 14.7122 9.85714 14.3571V14.1429C9.85714 11.9433 11.5247 11.064 12.7849 10.3575C13.8655 9.75166 14.5278 9.33964 14.5278 8.53736C14.5278 7.47611 13.1741 6.77175 12.0797 6.77175C10.6231 6.77175 9.96696 7.47563 9.00991 8.68945C8.79321 8.96427 8.39598 9.01457 8.11714 8.80312L6.25827 7.39366C5.98677 7.18779 5.92339 6.80588 6.11282 6.5227C7.575 4.33698 9.43704 3.10714 12.3565 3.10714C15.3761 3.10714 18.5993 5.46418 18.5993 8.57143C18.5993 12.6975 14.1429 12.761 14.1429 14.2857Z" fill="white"/>
</svg>
