<svg width="30" height="24" viewBox="0 0 30 24" fill="none" xmlns="http://www.w3.org/2000/svg">
<g clip-path="url(#clip0)">
<path d="M28.5 0H7.5C6.67172 0 6 0.615469 6 1.37484V6H12V1.5H24V15H22.5V16.5H28.5C29.3283 16.5 30 15.8845 30 15.1252V1.37484C30 0.615469 29.3283 0 28.5 0ZM10.5 4.5H7.5V1.5H10.5V4.5ZM28.5 15H25.5V12H28.5V15ZM28.5 10.5H25.5V6H28.5V10.5ZM28.5 4.5H25.5V1.5H28.5V4.5ZM19.5 7.5H1.5C1.10218 7.5 0.720644 7.65804 0.43934 7.93934C0.158035 8.22064 0 8.60218 0 9L0 22.5C0 22.8978 0.158035 23.2794 0.43934 23.5607C0.720644 23.842 1.10218 24 1.5 24H19.5C19.8978 24 20.2794 23.842 20.5607 23.5607C20.842 23.2794 21 22.8978 21 22.5V9C21 8.60218 20.842 8.22064 20.5607 7.93934C20.2794 7.65804 19.8978 7.5 19.5 7.5ZM19.5 22.5H1.5V21.375L5.32922 18.5034L9.07922 20.3784L15.0248 15.9188L19.5 18.9014V22.5ZM19.5 17.0986L14.9752 14.0817L8.92078 18.622L5.17078 16.747L1.5 19.5V9H19.5V17.0986ZM5.25 15C5.69501 15 6.13002 14.868 6.50003 14.6208C6.87004 14.3736 7.15843 14.0222 7.32873 13.611C7.49903 13.1999 7.54358 12.7475 7.45677 12.311C7.36995 11.8746 7.15566 11.4737 6.84099 11.159C6.52632 10.8443 6.12541 10.63 5.68895 10.5432C5.2525 10.4564 4.8001 10.501 4.38896 10.6713C3.97783 10.8416 3.62643 11.13 3.37919 11.5C3.13196 11.87 3 12.305 3 12.75C3 13.3467 3.23705 13.919 3.65901 14.341C4.08097 14.7629 4.65326 15 5.25 15V15ZM5.25 12C5.39834 12 5.54334 12.044 5.66668 12.1264C5.79001 12.2088 5.88614 12.3259 5.94291 12.463C5.99967 12.6 6.01453 12.7508 5.98559 12.8963C5.95665 13.0418 5.88522 13.1754 5.78033 13.2803C5.67544 13.3852 5.5418 13.4567 5.39632 13.4856C5.25083 13.5145 5.10003 13.4997 4.96299 13.4429C4.82594 13.3861 4.70881 13.29 4.6264 13.1667C4.54399 13.0433 4.5 12.8983 4.5 12.75C4.5 12.5511 4.57902 12.3603 4.71967 12.2197C4.86032 12.079 5.05109 12 5.25 12Z" fill="white"/>
</g>
<defs>
<clipPath id="clip0">
<rect width="30" height="24" fill="white"/>
</clipPath>
</defs>
</svg>
