<svg width="30" height="24" viewBox="0 0 30 24" fill="none" xmlns="http://www.w3.org/2000/svg">
<path d="M28.5 0H7.5C7.10217 0 6.72064 0.158035 6.43934 0.43934C6.15804 0.720644 6 1.10218 6 1.5V6H13.5V3H22.5V18H28.5C28.8978 18 29.2794 17.842 29.5607 17.5607C29.842 17.2794 30 16.8978 30 16.5V1.5C30 1.10218 29.842 0.720644 29.5607 0.43934C29.2794 0.158035 28.8978 0 28.5 0V0ZM10.875 4.82812C10.875 4.94001 10.8306 5.04732 10.7514 5.12644C10.6723 5.20555 10.565 5.25 10.4531 5.25H9.04687C8.93499 5.25 8.82768 5.20555 8.74856 5.12644C8.66945 5.04732 8.625 4.94001 8.625 4.82812V3.42188C8.625 3.30999 8.66945 3.20268 8.74856 3.12356C8.82768 3.04445 8.93499 3 9.04687 3H10.4531C10.565 3 10.6723 3.04445 10.7514 3.12356C10.8306 3.20268 10.875 3.30999 10.875 3.42188V4.82812ZM27.375 14.5781C27.375 14.69 27.3306 14.7973 27.2514 14.8764C27.1723 14.9556 27.065 15 26.9531 15H25.5469C25.435 15 25.3277 14.9556 25.2486 14.8764C25.1694 14.7973 25.125 14.69 25.125 14.5781V13.1719C25.125 13.06 25.1694 12.9527 25.2486 12.8736C25.3277 12.7944 25.435 12.75 25.5469 12.75H26.9531C27.065 12.75 27.1723 12.7944 27.2514 12.8736C27.3306 12.9527 27.375 13.06 27.375 13.1719V14.5781ZM27.375 9.70312C27.375 9.81501 27.3306 9.92232 27.2514 10.0014C27.1723 10.0806 27.065 10.125 26.9531 10.125H25.5469C25.435 10.125 25.3277 10.0806 25.2486 10.0014C25.1694 9.92232 25.125 9.81501 25.125 9.70312V8.29688C25.125 8.18499 25.1694 8.07768 25.2486 7.99856C25.3277 7.91945 25.435 7.875 25.5469 7.875H26.9531C27.065 7.875 27.1723 7.91945 27.2514 7.99856C27.3306 8.07768 27.375 8.18499 27.375 8.29688V9.70312ZM27.375 4.82812C27.375 4.94001 27.3306 5.04732 27.2514 5.12644C27.1723 5.20555 27.065 5.25 26.9531 5.25H25.5469C25.435 5.25 25.3277 5.20555 25.2486 5.12644C25.1694 5.04732 25.125 4.94001 25.125 4.82812V3.42188C25.125 3.30999 25.1694 3.20268 25.2486 3.12356C25.3277 3.04445 25.435 3 25.5469 3H26.9531C27.065 3 27.1723 3.04445 27.2514 3.12356C27.3306 3.20268 27.375 3.30999 27.375 3.42188V4.82812ZM19.5 7.5H1.5C1.10218 7.5 0.720644 7.65804 0.43934 7.93934C0.158035 8.22064 0 8.60218 0 9L0 22.5C0 22.8978 0.158035 23.2794 0.43934 23.5607C0.720644 23.842 1.10218 24 1.5 24H19.5C19.8978 24 20.2794 23.842 20.5607 23.5607C20.842 23.2794 21 22.8978 21 22.5V9C21 8.60218 20.842 8.22064 20.5607 7.93934C20.2794 7.65804 19.8978 7.5 19.5 7.5ZM4.5 10.5C4.79667 10.5 5.08668 10.588 5.33335 10.7528C5.58003 10.9176 5.77229 11.1519 5.88582 11.426C5.99935 11.7001 6.02906 12.0017 5.97118 12.2926C5.9133 12.5836 5.77044 12.8509 5.56066 13.0607C5.35088 13.2704 5.08361 13.4133 4.79264 13.4712C4.50166 13.5291 4.20006 13.4994 3.92597 13.3858C3.65189 13.2723 3.41762 13.08 3.2528 12.8334C3.08797 12.5867 3 12.2967 3 12C3 11.6022 3.15803 11.2206 3.43934 10.9393C3.72064 10.658 4.10217 10.5 4.5 10.5V10.5ZM18 21H3V19.5L6 16.5L7.5 18L13.5 12L18 16.5V21Z" fill="white"/>
</svg>
