<svg width="24" height="24" viewBox="0 0 24 24" fill="none" xmlns="http://www.w3.org/2000/svg">
<path d="M12 9.49969C11.482 9.49987 10.9756 9.64667 10.545 9.92152C10.1144 10.1964 9.77882 10.5869 9.58071 11.0438C9.38261 11.5007 9.33088 12.0034 9.43206 12.4884C9.53324 12.9733 9.78279 13.4187 10.1492 13.7683C10.5155 14.1179 10.9822 14.3559 11.4903 14.4523C11.9984 14.5487 12.525 14.4992 13.0036 14.3099C13.4822 14.1206 13.8912 13.8002 14.179 13.389C14.4668 12.9778 14.6204 12.4945 14.6204 12C14.6198 11.3369 14.3436 10.701 13.8522 10.2322C13.3609 9.76341 12.6947 9.49994 12 9.49969ZM18.1242 7.57781C17.9908 7.25524 17.7894 6.96226 17.5326 6.71705C17.2757 6.47184 16.9687 6.27963 16.6308 6.15234C15.5996 5.76375 13.1442 5.85094 12 5.85094C10.8558 5.85094 8.4029 5.76047 7.36871 6.15234C7.03077 6.27963 6.72384 6.47184 6.46695 6.71705C6.21007 6.96226 6.0087 7.25524 5.87536 7.57781C5.46875 8.56219 5.5596 10.9083 5.5596 11.9995C5.5596 13.0908 5.46875 15.4341 5.87732 16.4217C6.01067 16.7443 6.21203 17.0373 6.46892 17.2825C6.7258 17.5277 7.03273 17.7199 7.37067 17.8472C8.40192 18.2358 10.8573 18.1486 12.002 18.1486C13.1467 18.1486 15.5986 18.2391 16.6328 17.8472C16.9707 17.7199 17.2776 17.5277 17.5345 17.2825C17.7914 17.0373 17.9928 16.7443 18.1261 16.4217C18.5362 15.4373 18.4419 13.0913 18.4419 12C18.4419 10.9087 18.5362 8.56594 18.1261 7.57828L18.1242 7.57781ZM12 15.8438C11.2036 15.8438 10.425 15.6183 9.76284 15.196C9.10064 14.7736 8.58451 14.1733 8.27974 13.4709C7.97496 12.7686 7.89521 11.9957 8.05059 11.2501C8.20596 10.5045 8.58948 9.81962 9.15263 9.28206C9.71579 8.7445 10.4333 8.37842 11.2144 8.23011C11.9955 8.08179 12.8052 8.15791 13.541 8.44884C14.2768 8.73976 14.9057 9.23243 15.3482 9.86453C15.7906 10.4966 16.0268 11.2398 16.0268 12C16.0274 12.5049 15.9237 13.005 15.7216 13.4717C15.5194 13.9383 15.2229 14.3623 14.8488 14.7193C14.4748 15.0764 14.0306 15.3595 13.5417 15.5524C13.0529 15.7454 12.529 15.8444 12 15.8438ZM16.1928 8.89219C16.0069 8.89228 15.8251 8.83974 15.6704 8.74121C15.5158 8.64268 15.3953 8.5026 15.3241 8.33866C15.2528 8.17473 15.2342 7.99432 15.2704 7.82026C15.3066 7.64619 15.3961 7.48628 15.5275 7.36076C15.6589 7.23524 15.8264 7.14974 16.0087 7.11509C16.1911 7.08043 16.3801 7.09817 16.5519 7.16606C16.7236 7.23395 16.8704 7.34895 16.9737 7.4965C17.077 7.64405 17.1322 7.81753 17.1322 7.995C17.1327 8.11285 17.1088 8.22964 17.062 8.33866C17.0151 8.44769 16.9461 8.54681 16.859 8.63034C16.7719 8.71387 16.6684 8.78016 16.5544 8.82542C16.4404 8.87067 16.3182 8.894 16.1947 8.89406L16.1928 8.89219ZM20.6429 1.5H3.35714C2.73199 1.5 2.13244 1.73705 1.69039 2.15901C1.24834 2.58097 1 3.15326 1 3.75L1 20.25C1 20.8467 1.24834 21.419 1.69039 21.841C2.13244 22.2629 2.73199 22.5 3.35714 22.5H20.6429C21.268 22.5 21.8676 22.2629 22.3096 21.841C22.7517 21.419 23 20.8467 23 20.25V3.75C23 3.15326 22.7517 2.58097 22.3096 2.15901C21.8676 1.73705 21.268 1.5 20.6429 1.5ZM19.8021 15.0938C19.7388 16.2952 19.4515 17.3597 18.5327 18.2344C17.6139 19.1091 16.4997 19.3889 15.2425 19.4461C13.9456 19.5159 10.0573 19.5159 8.7604 19.4461C7.50179 19.3856 6.39049 19.1109 5.47022 18.2344C4.54996 17.3578 4.26071 16.2928 4.2008 15.0938C4.12763 13.8553 4.12763 10.1433 4.2008 8.90625C4.26415 7.70484 4.54799 6.64031 5.47022 5.76562C6.39246 4.89094 7.5067 4.61438 8.7604 4.55719C10.0573 4.48734 13.9456 4.48734 15.2425 4.55719C16.5012 4.61766 17.6159 4.89234 18.5327 5.76891C19.4496 6.64547 19.7422 7.71047 19.8021 8.91187C19.8753 10.1456 19.8753 13.8544 19.8021 15.0938Z" fill="white"/>
</svg>
