<svg width="24" height="25" viewBox="0 0 24 25" fill="none" xmlns="http://www.w3.org/2000/svg">
<path d="M11.5059 6.38488C8.5134 6.38488 6.09966 8.89464 6.09966 12.0061C6.09966 15.1177 8.5134 17.6274 11.5059 17.6274C14.4983 17.6274 16.9121 15.1177 16.9121 12.0061C16.9121 8.89464 14.4983 6.38488 11.5059 6.38488ZM11.5059 15.6607C9.57205 15.6607 7.99113 14.0218 7.99113 12.0061C7.99113 9.99051 9.56735 8.35159 11.5059 8.35159C13.4444 8.35159 15.0206 9.99051 15.0206 12.0061C15.0206 14.0218 13.4397 15.6607 11.5059 15.6607ZM18.3942 6.15494C18.3942 6.8839 17.8296 7.46608 17.1332 7.46608C16.4321 7.46608 15.8722 6.87901 15.8722 6.15494C15.8722 5.43088 16.4368 4.8438 17.1332 4.8438C17.8296 4.8438 18.3942 5.43088 18.3942 6.15494ZM21.9748 7.48565C21.8948 5.72931 21.509 4.17356 20.2715 2.89177C19.0388 1.60999 17.5425 1.20882 15.8534 1.12076C14.1125 1.01802 8.89451 1.01802 7.15361 1.12076C5.46918 1.20392 3.97294 1.60509 2.73549 2.88688C1.49804 4.16866 1.11693 5.72442 1.03224 7.48076C0.933428 9.29091 0.933428 14.7165 1.03224 16.5266C1.11222 18.283 1.49804 19.8387 2.73549 21.1205C3.97294 22.4023 5.46447 22.8035 7.15361 22.8915C8.89451 22.9943 14.1125 22.9943 15.8534 22.8915C17.5425 22.8084 19.0388 22.4072 20.2715 21.1205C21.5043 19.8387 21.8901 18.283 21.9748 16.5266C22.0736 14.7165 22.0736 9.29581 21.9748 7.48565ZM19.7257 18.4689C19.3587 19.4278 18.6483 20.1665 17.7213 20.553C16.3333 21.1254 13.0397 20.9933 11.5059 20.9933C9.97199 20.9933 6.67369 21.1205 5.29038 20.553C4.36817 20.1714 3.6577 19.4327 3.28599 18.4689C2.73549 17.0257 2.86253 13.601 2.86253 12.0061C2.86253 10.4113 2.7402 6.98174 3.28599 5.5434C3.65299 4.58451 4.36347 3.84577 5.29038 3.45928C6.67839 2.88688 9.97199 3.01897 11.5059 3.01897C13.0397 3.01897 16.338 2.89177 17.7213 3.45928C18.6435 3.84088 19.354 4.57962 19.7257 5.5434C20.2762 6.98664 20.1492 10.4113 20.1492 12.0061C20.1492 13.601 20.2762 17.0306 19.7257 18.4689Z" fill="white"/>
</svg>
