<svg width="24" height="24" viewBox="0 0 24 24" fill="none" xmlns="http://www.w3.org/2000/svg">
<path d="M12.2499 0C7.4241 0 3.99426 3.91594 3.99988 8.26125C4.0027 10.3369 4.77332 12.2302 6.04176 13.6772C7.2441 15.0483 8.3991 17.2819 8.49988 18L8.5027 21.5241C8.5027 21.6717 8.54676 21.8156 8.62832 21.9384L9.77723 23.6653C9.91645 23.8744 10.1508 24 10.4016 24H14.0977C14.3489 24 14.5833 23.8744 14.7221 23.6653L15.871 21.9384C15.9525 21.8156 15.9961 21.6712 15.9966 21.5241L15.9999 18C16.1058 17.2631 17.265 15.038 18.458 13.6772C19.7288 12.2273 20.4999 10.3298 20.4999 8.25C20.4999 3.69375 16.8061 0 12.2499 0ZM14.4971 21.2958L13.696 22.5H10.8033L10.0022 21.2958L10.0018 21H14.4971V21.2958ZM14.4989 19.5H10.0004L9.99707 18H14.5008L14.4989 19.5ZM17.3302 12.6881C16.6744 13.4362 15.6272 14.9428 14.9593 16.4995H9.54098C8.87254 14.9423 7.82582 13.4362 7.17004 12.6881C6.08582 11.4516 5.50598 9.88359 5.50223 8.25C5.49379 4.64109 8.33254 1.5 12.2499 1.5C15.9718 1.5 18.9999 4.52812 18.9999 8.25C18.9999 9.88359 18.4069 11.46 17.3302 12.6881ZM12.2499 3C9.35535 3 6.99988 5.35547 6.99988 8.25C6.99988 8.66438 7.33551 9 7.74988 9C8.16426 9 8.49988 8.66438 8.49988 8.25C8.49988 6.18234 10.1818 4.5 12.2499 4.5C12.6643 4.5 12.9999 4.16437 12.9999 3.75C12.9999 3.33562 12.6643 3 12.2499 3Z" fill="white"/>
</svg>
