<svg width="30" height="24" viewBox="0 0 30 24" fill="none" xmlns="http://www.w3.org/2000/svg">
<g clip-path="url(#clip0)">
<path d="M5.25 9C5.25 8.70163 5.13147 8.41548 4.9205 8.2045C4.70952 7.99352 4.42337 7.875 4.125 7.875H1.125C0.826631 7.875 0.540483 7.99352 0.329505 8.2045C0.118526 8.41548 0 8.70163 0 9C0 9.29836 0.118526 9.58451 0.329505 9.79549C0.540483 10.0065 0.826631 10.125 1.125 10.125H4.125C4.42337 10.125 4.70952 10.0065 4.9205 9.79549C5.13147 9.58451 5.25 9.29836 5.25 9ZM5.01937 13.4634L2.42156 14.9634C2.29079 15.0358 2.17575 15.1335 2.08316 15.2508C1.99057 15.3682 1.92228 15.5028 1.8823 15.6468C1.84231 15.7908 1.83143 15.9413 1.85027 16.0896C1.86912 16.2379 1.91733 16.3809 1.99207 16.5103C2.06681 16.6398 2.1666 16.753 2.2856 16.8435C2.4046 16.9339 2.54043 16.9997 2.68515 17.0371C2.82987 17.0744 2.98058 17.0825 3.12849 17.061C3.27639 17.0394 3.41852 16.9886 3.54656 16.9116L6.14437 15.4116C6.39695 15.2595 6.57973 15.0144 6.65341 14.7289C6.72709 14.4434 6.68576 14.1405 6.53833 13.8852C6.3909 13.6299 6.14914 13.4426 5.86507 13.3638C5.581 13.2849 5.27732 13.3207 5.01937 13.4634ZM6.14437 2.58844L3.54656 1.08844C3.41852 1.01135 3.27639 0.960541 3.12849 0.938992C2.98058 0.917444 2.82987 0.925584 2.68515 0.962936C2.54043 1.00029 2.4046 1.0661 2.2856 1.15654C2.1666 1.24697 2.06681 1.36021 1.99207 1.48965C1.91733 1.61908 1.86912 1.76211 1.85027 1.91038C1.83143 2.05865 1.84231 2.20919 1.8823 2.3532C1.92228 2.49722 1.99057 2.63182 2.08316 2.74916C2.17575 2.86649 2.29079 2.96419 2.42156 3.03656L5.01937 4.53656C5.14742 4.61365 5.28955 4.66446 5.43745 4.68601C5.58535 4.70755 5.73607 4.69941 5.88079 4.66206C6.02551 4.62471 6.16134 4.5589 6.28034 4.46846C6.39934 4.37803 6.49912 4.26478 6.57387 4.13535C6.64861 4.00592 6.69682 3.86289 6.71566 3.71462C6.73451 3.56635 6.72362 3.41581 6.68364 3.27179C6.64365 3.12778 6.57537 2.99317 6.48278 2.87584C6.39019 2.75851 6.27515 2.66081 6.14437 2.58844ZM24.4191 4.6875C24.6166 4.68788 24.8107 4.63579 24.9816 4.53656L27.5794 3.03656C27.8319 2.8845 28.0147 2.63937 28.0884 2.3539C28.1621 2.06844 28.1208 1.76547 27.9733 1.51017C27.8259 1.25486 27.5841 1.06764 27.3001 0.988766C27.016 0.909896 26.7123 0.945686 26.4544 1.08844L23.8566 2.58844C23.6422 2.71231 23.4747 2.90344 23.38 3.13219C23.2853 3.36095 23.2687 3.61455 23.3328 3.8537C23.3969 4.09284 23.538 4.30417 23.7344 4.45492C23.9308 4.60566 24.1715 4.68742 24.4191 4.6875ZM28.875 7.875H25.875C25.5766 7.875 25.2905 7.99352 25.0795 8.2045C24.8685 8.41548 24.75 8.70163 24.75 9C24.75 9.29836 24.8685 9.58451 25.0795 9.79549C25.2905 10.0065 25.5766 10.125 25.875 10.125H28.875C29.1734 10.125 29.4595 10.0065 29.6705 9.79549C29.8815 9.58451 30 9.29836 30 9C30 8.70163 29.8815 8.41548 29.6705 8.2045C29.4595 7.99352 29.1734 7.875 28.875 7.875ZM27.5784 14.9639L24.9806 13.4639C24.8526 13.3868 24.7105 13.336 24.5625 13.3145C24.4146 13.2929 24.2639 13.301 24.1192 13.3384C23.9745 13.3757 23.8387 13.4416 23.7197 13.532C23.6007 13.6224 23.5009 13.7357 23.4261 13.8651C23.3514 13.9945 23.3032 14.1376 23.2843 14.2858C23.2655 14.4341 23.2764 14.5846 23.3164 14.7287C23.3563 14.8727 23.4246 15.0073 23.5172 15.1246C23.6098 15.2419 23.7249 15.3397 23.8556 15.412L26.4534 16.912C26.7114 17.0548 27.0151 17.0906 27.2991 17.0117C27.5832 16.9328 27.825 16.7456 27.9724 16.4903C28.1198 16.235 28.1611 15.932 28.0875 15.6466C28.0138 15.3611 27.831 15.116 27.5784 14.9639ZM15 6.50255e-07C10.2056 6.50255e-07 6.75 3.89062 6.75 8.25C6.74722 10.2473 7.47323 12.177 8.79187 13.6772C9.57141 14.5678 10.7958 16.4334 11.2486 17.9972V18H13.4986V17.9944C13.4985 17.7708 13.4648 17.5484 13.3988 17.3348C13.1367 16.5 12.3281 14.2997 10.4841 12.1945C9.52776 11.1031 9.00125 9.70107 9.00281 8.25C8.9925 4.79812 11.7994 2.25 15 2.25C16.1523 2.24921 17.2804 2.58048 18.2493 3.20415C19.2182 3.82783 19.9869 4.71749 20.4633 5.76666C20.9398 6.81584 21.1038 7.98008 20.9358 9.12005C20.7678 10.26 20.2748 11.3274 19.5159 12.1945C17.6836 14.2856 16.8722 16.4822 16.6055 17.3255C16.5418 17.5436 16.5064 17.7691 16.5 17.9962V18H18.75C19.2042 16.4358 20.4272 14.5697 21.2067 13.6805C22.2511 12.4882 22.9297 11.0202 23.1614 9.45231C23.3931 7.88437 23.1681 6.28288 22.5132 4.83951C21.8584 3.39615 20.8015 2.17207 19.469 1.31378C18.1365 0.455497 16.585 -0.000628634 15 6.50255e-07ZM15 3.75C13.8069 3.75136 12.6631 4.22591 11.8195 5.06952C10.9759 5.91314 10.5014 7.05694 10.5 8.25C10.5 8.44891 10.579 8.63967 10.7197 8.78033C10.8603 8.92098 11.0511 9 11.25 9C11.4489 9 11.6397 8.92098 11.7803 8.78033C11.921 8.63967 12 8.44891 12 8.25C12.001 7.45465 12.3174 6.69217 12.8798 6.12977C13.4422 5.56738 14.2047 5.25099 15 5.25C15.1989 5.25 15.3897 5.17098 15.5303 5.03033C15.671 4.88968 15.75 4.69891 15.75 4.5C15.75 4.30109 15.671 4.11032 15.5303 3.96967C15.3897 3.82902 15.1989 3.75 15 3.75ZM11.2528 21.5245C11.2532 21.672 11.297 21.8162 11.3789 21.9389L12.5273 23.6653C12.5957 23.7681 12.6885 23.8525 12.7973 23.9109C12.9062 23.9693 13.0277 23.9999 13.1512 24H16.8473C16.9711 24.0001 17.093 23.9696 17.2021 23.9112C17.3112 23.8528 17.4041 23.7683 17.4727 23.6653L18.6211 21.9375C18.7025 21.8145 18.7463 21.6705 18.7472 21.5231L18.75 19.5H11.25L11.2528 21.5245Z" fill="white"/>
</g>
<defs>
<clipPath id="clip0">
<rect width="30" height="24" fill="white"/>
</clipPath>
</defs>
</svg>
