<svg width="24" height="24" viewBox="0 0 24 24" fill="none" xmlns="http://www.w3.org/2000/svg">
<path fill-rule="evenodd" clip-rule="evenodd" d="M2.11358 0.04186C1.82269 0.0945475 1.48904 0.222315 1.22933 0.380538C0.930937 0.562333 0.541339 0.955387 0.36517 1.25239C0.204375 1.52346 0.0661339 1.92104 0.0275357 2.2234C0.00699103 2.38435 0.000723172 5.29256 0.0061071 12.1475L0.013741 21.8439L0.0734464 22.0536C0.145232 22.3057 0.241848 22.5294 0.387562 22.7809C0.53925 23.0427 0.968277 23.4664 1.25277 23.6354C1.52346 23.7961 1.92107 23.9344 2.22356 23.973C2.38452 23.9935 5.29272 23.9998 12.1477 23.9944L21.8441 23.9868L22.0538 23.9271C22.3058 23.8553 22.5295 23.7587 22.7811 23.613C23.0429 23.4613 23.4666 23.0323 23.6355 22.7478C23.7963 22.4771 23.9345 22.0795 23.9732 21.777C23.9937 21.616 24 18.7078 23.9946 11.8529L23.987 2.15643L23.9273 1.94673C23.8556 1.69515 23.7592 1.47171 23.6131 1.21893C23.4613 0.956083 23.0341 0.534235 22.7484 0.365003C22.4855 0.209244 22.0846 0.0677349 21.7953 0.0285474C21.6508 0.00899385 18.597 0.000931304 11.9515 0.00259202C3.8947 0.00460095 2.28396 0.0110296 2.11358 0.04186ZM6.10604 3.53349C6.66182 3.72077 7.07628 4.08029 7.32774 4.59318C7.59876 5.14596 7.59758 5.83904 7.32469 6.39551C6.84903 7.36545 5.67546 7.81028 4.68595 7.39566C4.06888 7.1371 3.5951 6.56482 3.453 5.90643C3.40112 5.66606 3.41306 5.2231 3.47796 4.97868C3.6469 4.34282 4.11766 3.80686 4.7092 3.57701C5.00633 3.46157 5.20575 3.42859 5.54499 3.43888C5.80481 3.44675 5.89262 3.46157 6.10604 3.53349ZM17.0304 8.86781C19.1518 9.09889 20.2163 10.264 20.5043 12.6698C20.5819 13.3183 20.5978 14.107 20.5982 17.3238L20.5986 20.5716H18.8173H17.0361L17.0357 17.5649C17.0353 14.5879 17.0219 14.0123 16.9423 13.5537C16.8223 12.8621 16.509 12.362 16.0629 12.1499C15.7574 12.0046 15.5193 11.9645 15.0581 11.9806C14.6072 11.9963 14.4416 12.0333 14.1209 12.1903C13.5049 12.4919 13.1654 13.1464 13.0734 14.21C13.0562 14.4082 13.0454 15.6893 13.0453 17.5515L13.045 20.5716H11.2637H9.48249V14.8393V9.10692L11.1901 9.11383L12.8977 9.12072L12.9111 9.9109L12.9245 10.7011L13.0779 10.4667C13.1623 10.3378 13.331 10.1284 13.4529 10.0015C14.0332 9.3968 14.7784 9.01872 15.66 8.8816C15.9497 8.83657 16.6764 8.82924 17.0304 8.86781ZM7.25928 14.8395V20.5716H5.47803H3.69678V14.8395V9.10732H5.47803H7.25928V14.8395Z" fill="white"/>
</svg>
