<svg width="24" height="24" viewBox="0 0 24 24" fill="none" xmlns="http://www.w3.org/2000/svg">
<path d="M21.5583 9.00094C21.5255 9.00094 21.4931 9.00187 21.4617 9.00328C19.1273 9.13641 14.8753 9.61266 12.0005 11.2331C9.12563 9.61266 4.87313 9.13641 2.53922 9.00328C2.50781 9.00141 2.47547 9.00094 2.44266 9.00094C1.48641 9.00047 0 9.67313 0 11.3541V19.7002C0 20.9513 0.996094 21.983 2.26594 22.0495C3.87891 22.1344 7.91719 22.4752 10.5628 23.8059C10.7822 23.917 11.0156 23.97 11.25 23.9859V23.9986H11.3564C11.3606 23.9986 11.3648 24 11.3686 24H12.6314C12.6356 24 12.6398 23.9986 12.6436 23.9986H12.75V23.9859C12.9844 23.97 13.2178 23.9166 13.4372 23.8059C16.0828 22.4752 20.1211 22.1348 21.7341 22.0495C23.0039 21.983 24 20.9508 24 19.7002V11.3541C24 9.67313 22.5136 9.00094 21.5583 9.00094ZM11.25 22.4695C11.2458 22.4677 11.2416 22.4686 11.2369 22.4662C8.44359 21.0614 4.46672 20.6639 2.34469 20.5519C1.87125 20.527 1.5 20.153 1.5 19.7002V11.3541C1.5 11.0705 1.58297 10.8853 1.77797 10.7353C1.9875 10.5741 2.26875 10.5005 2.45297 10.5005C4.18781 10.5994 8.5125 10.9964 11.25 12.533V22.4695ZM22.5 19.7002C22.5 20.153 22.1287 20.527 21.6548 20.5519C19.5328 20.6634 15.5559 21.0609 12.7598 22.4677C12.7566 22.4695 12.7533 22.4686 12.7495 22.47V12.533C15.4866 10.9959 19.8117 10.5994 21.5391 10.5009L21.5573 10.5005C21.5667 10.5005 22.4991 10.5234 22.4991 11.3541V19.7002H22.5ZM12 8.99953C14.4853 8.99953 16.5 6.98484 16.5 4.5C16.5 2.01516 14.4853 0 12 0C9.51469 0 7.5 2.01469 7.5 4.49953C7.5 6.98438 9.51469 8.99953 12 8.99953ZM12 1.5C13.6542 1.5 15 2.84578 15 4.5C15 6.15422 13.6542 7.5 12 7.5C10.3458 7.5 9 6.15422 9 4.5C9 2.84578 10.3458 1.5 12 1.5Z" fill="white"/>
</svg>
