<svg width="24" height="24" viewBox="0 0 24 24" fill="none" xmlns="http://www.w3.org/2000/svg">
<path d="M22.2 2H18.6C17.6059 2 16.8 2.83945 16.8 3.875V5.125H7.2V3.875C7.2 2.83945 6.39413 2 5.4 2H1.8C0.805875 2 0 2.83945 0 3.875V7.625C0 8.66055 0.805875 9.5 1.8 9.5H5.35725L8.68575 15.3676C8.50688 15.659 8.39963 16.0031 8.39963 16.375V20.125C8.39963 21.1605 9.2055 22 10.1996 22H13.7996C14.7937 22 15.5996 21.1605 15.5996 20.125V16.375C15.5996 15.3395 14.7937 14.5 13.7996 14.5H10.1996C10.0046 14.5 9.8205 14.5406 9.64463 14.6004L6.516 9.08555C6.93 8.7418 7.2 8.21875 7.2 7.625V6.375H16.8V7.625C16.8 8.66055 17.6059 9.5 18.6 9.5H22.2C23.1941 9.5 24 8.66055 24 7.625V3.875C24 2.83945 23.1941 2 22.2 2ZM1.2 7.625V3.875C1.2 3.53047 1.46925 3.25 1.8 3.25H5.4C5.73075 3.25 6 3.53047 6 3.875V7.625C6 7.96953 5.73075 8.25 5.4 8.25H1.8C1.46925 8.25 1.2 7.96953 1.2 7.625ZM13.8 15.75C14.1308 15.75 14.4 16.0305 14.4 16.375V20.125C14.4 20.4695 14.1308 20.75 13.8 20.75H10.2C9.86925 20.75 9.6 20.4695 9.6 20.125V16.375C9.6 16.0305 9.86925 15.75 10.2 15.75H13.8ZM22.8 7.625C22.8 7.96953 22.5308 8.25 22.2 8.25H18.6C18.2693 8.25 18 7.96953 18 7.625V3.875C18 3.53047 18.2693 3.25 18.6 3.25H22.2C22.5308 3.25 22.8 3.53047 22.8 3.875V7.625Z" fill="white"/>
</svg>
