<svg width="24" height="24" viewBox="0 0 24 24" fill="none" xmlns="http://www.w3.org/2000/svg">
<path d="M14.4 14.5H9.6C8.93738 14.5 8.4 15.0598 8.4 15.75V20.75C8.4 21.4402 8.93738 22 9.6 22H14.4C15.0626 22 15.6 21.4402 15.6 20.75V15.75C15.6 15.0598 15.0626 14.5 14.4 14.5ZM7.2 3.25C7.2 2.55977 6.66263 2 6 2H1.2C0.537375 2 0 2.55977 0 3.25V8.25C0 8.94023 0.537375 9.5 1.2 9.5H4.7895L7.533 14.5016C7.94925 13.757 8.715 13.25 9.6 13.25H9.6105L7.2 8.85586V7H15.6V4.5H7.2V3.25ZM22.8 2H18C17.3374 2 16.8 2.55977 16.8 3.25V8.25C16.8 8.94023 17.3374 9.5 18 9.5H22.8C23.4626 9.5 24 8.94023 24 8.25V3.25C24 2.55977 23.4626 2 22.8 2Z" fill="white"/>
</svg>
