<svg width="24" height="24" viewBox="0 0 24 24" fill="none" xmlns="http://www.w3.org/2000/svg">
<path d="M20.6429 1.5H3.35714C2.05531 1.5 1 2.50734 1 3.75V20.25C1 21.4927 2.05531 22.5 3.35714 22.5H20.6429C21.9447 22.5 23 21.4927 23 20.25V3.75C23 2.50734 21.9447 1.5 20.6429 1.5ZM12 20.1562C10.7544 20.1562 9.74107 19.1889 9.74107 18C9.74107 16.811 10.7544 15.8438 12 15.8438C13.2456 15.8438 14.2589 16.811 14.2589 18C14.2589 19.1889 13.2456 20.1562 12 20.1562ZM13.9643 14V14.0625C13.9643 14.3731 13.7004 14.625 13.375 14.625H10.625C10.2996 14.625 10.0357 14.3731 10.0357 14.0625V13.875C10.0357 11.9504 11.5643 11.181 12.7195 10.5628C13.7101 10.0327 14.3172 9.67219 14.3172 8.97019C14.3172 8.04159 13.0763 7.42528 12.0731 7.42528C10.7378 7.42528 10.1364 8.04117 9.25908 9.10327C9.06045 9.34373 8.69632 9.38775 8.44071 9.20273L6.73675 7.96945C6.48787 7.78931 6.42978 7.45514 6.60342 7.20736C7.94375 5.29486 9.65062 4.21875 12.3268 4.21875C15.0948 4.21875 18.0493 6.28116 18.0493 9C18.0493 12.6103 13.9643 12.6659 13.9643 14Z" fill="white"/>
</svg>
