<svg width="24" height="24" viewBox="0 0 24 24" fill="none" xmlns="http://www.w3.org/2000/svg">
<g clip-path="url(#clip0)">
<path d="M23.5594 18.2578L17.7281 12.4219C16.9969 11.6906 16.0359 11.325 15.075 11.325C14.3531 11.325 13.6313 11.5312 13.0078 11.9484L9 7.94062V4.5L3 0L0 3L4.5 9H7.94062L11.9484 13.0078C10.9828 14.4656 11.1422 16.4438 12.4266 17.7281L18.2625 23.5641C18.5531 23.8547 18.9375 24.0047 19.3219 24.0047C19.7063 24.0047 20.0906 23.8594 20.3812 23.5641L23.5641 20.3812C24.1453 19.7906 24.1453 18.8438 23.5594 18.2578ZM7.5 7.41094V7.5H5.25L1.98281 3.14062L3.14062 1.98281L7.5 5.25V7.41094ZM19.3172 22.5L13.4859 16.6641C13.0594 16.2375 12.825 15.675 12.825 15.075C12.825 14.475 13.0594 13.9078 13.4859 13.4859C13.9125 13.0594 14.475 12.825 15.075 12.825C15.675 12.825 16.2422 13.0594 16.6641 13.4859L22.5 19.3172L19.3172 22.5ZM3 20.25C3 20.6625 3.3375 21 3.75 21C4.1625 21 4.5 20.6625 4.5 20.25C4.5 19.8375 4.1625 19.5 3.75 19.5C3.3375 19.5 3 19.8375 3 20.25ZM12.975 3.13594C14.0391 2.07188 15.4406 1.5 16.9031 1.5C17.2266 1.5 17.55 1.52812 17.8734 1.58437L14.625 4.8375L15.2719 8.72812L19.1672 9.375L22.4156 6.12656C22.7297 7.91719 22.1672 9.72656 20.8641 11.025C20.4469 11.4422 19.9688 11.775 19.4578 12.0328L20.5641 13.1391C21.0516 12.8484 21.5109 12.5016 21.9234 12.0844C23.6953 10.3125 24.3937 7.8 23.7844 5.36719C23.6766 4.92188 23.3297 4.57031 22.8891 4.44844C22.4437 4.32656 21.9656 4.44844 21.6375 4.77656L18.6422 7.77188L16.5703 7.425L16.2234 5.35312L19.2188 2.35781C19.5422 2.03437 19.6688 1.55625 19.5469 1.11562C19.425 0.670312 19.0687 0.328125 18.6234 0.215625C16.2 -0.389062 13.6875 0.304688 11.9109 2.07656C11.3063 2.68125 10.8375 3.38438 10.5 4.13906V7.31719L11.5359 8.35312C11.0859 6.45937 11.6109 4.5 12.975 3.13594ZM5.01562 21.8953C4.2375 22.6734 2.87812 22.6734 2.1 21.8953C1.29844 21.0938 1.29844 19.7812 2.1 18.9797L8.94844 12.1312L7.88906 11.0719L1.04063 17.9203C-0.346875 19.3078 -0.346875 21.5672 1.04063 22.9594C1.71094 23.6297 2.60625 24 3.55781 24C4.50938 24 5.40469 23.6297 6.075 22.9547L10.8469 18.1875C10.5328 17.7563 10.2937 17.2828 10.1203 16.7906L5.01562 21.8953Z" fill="white"/>
</g>
<defs>
<clipPath id="clip0">
<rect width="24" height="24" fill="white"/>
</clipPath>
</defs>
</svg>
