<svg width="24" height="24" viewBox="0 0 24 24" fill="none" xmlns="http://www.w3.org/2000/svg">
<g clip-path="url(#clip0)">
<path d="M23.25 21H22.5V19.125C22.5 18.5037 21.9963 18 21.375 18H19.5V9.75H18V18H15V9.75H13.5V18H10.5V9.75H9V18H6V9.75H4.5V18H2.625C2.00367 18 1.5 18.5037 1.5 19.125V21H0.75C0.335766 21 1.78053e-09 21.3358 1.78053e-09 21.75V22.125C1.78053e-09 22.2245 0.0395088 22.3198 0.109835 22.3902C0.180161 22.4605 0.275544 22.5 0.375 22.5H23.625C23.7245 22.5 23.8198 22.4605 23.8902 22.3902C23.9605 22.3198 24 22.2245 24 22.125V21.75C24 21.3358 23.6642 21 23.25 21ZM3 19.5H21V21H3V19.5ZM23.6375 6.375L12.7115 1.61545C12.2497 1.46152 11.7503 1.46152 11.2885 1.61545L0.362484 6.375C0.255885 6.41555 0.164131 6.48755 0.0993926 6.58144C0.0346543 6.67534 -9.0709e-06 6.7867 1.78053e-09 6.90075V7.3125C1.78053e-09 7.62314 0.251859 7.875 0.5625 7.875H1.5V8.4375C1.5 8.74814 1.75186 9 2.0625 9H21.9375C22.2481 9 22.5 8.74814 22.5 8.4375V7.875H23.4375C23.7481 7.875 24 7.62314 24 7.3125V6.90075C24 6.66722 23.8558 6.45802 23.6375 6.375ZM21 7.5H3V6.86222L11.8098 3.02452C11.9345 2.99184 12.0655 2.99184 12.1902 3.02452L21 6.86222V7.5Z" fill="white"/>
</g>
<defs>
<clipPath id="clip0">
<rect width="24" height="24" fill="white"/>
</clipPath>
</defs>
</svg>
