<svg width="24" height="24" viewBox="0 0 24 24" fill="none" xmlns="http://www.w3.org/2000/svg">
<path d="M23.25 6.00001V6.75001C23.25 6.84947 23.2105 6.94485 23.1402 7.01518C23.0698 7.08551 22.9745 7.12501 22.875 7.12501H21.75V7.68751C21.75 7.99816 21.4981 8.25002 21.1875 8.25002H2.8125C2.50186 8.25002 2.25 7.99816 2.25 7.68751V7.12501H1.125C1.02554 7.12501 0.930161 7.08551 0.859835 7.01518C0.789509 6.94485 0.75 6.84947 0.75 6.75001V6.00001C0.750001 5.92583 0.772007 5.8533 0.813234 5.79162C0.854462 5.72995 0.913058 5.68188 0.981609 5.65351L11.8566 1.52851C11.9484 1.4905 12.0516 1.4905 12.1434 1.52851L23.0184 5.65351C23.0869 5.68188 23.1455 5.72995 23.1868 5.79162C23.228 5.8533 23.25 5.92583 23.25 6.00001ZM22.125 20.25H1.875C1.25367 20.25 0.75 20.7537 0.75 21.375V22.125C0.75 22.2245 0.789509 22.3199 0.859835 22.3902C0.930161 22.4605 1.02554 22.5 1.125 22.5H22.875C22.9745 22.5 23.0698 22.4605 23.1402 22.3902C23.2105 22.3199 23.25 22.2245 23.25 22.125V21.375C23.25 20.7537 22.7463 20.25 22.125 20.25ZM4.5 9.00002V18H2.8125C2.50186 18 2.25 18.2519 2.25 18.5625V19.5H21.75V18.5625C21.75 18.2519 21.4981 18 21.1875 18H19.5V9.00002H16.5V18H13.5V9.00002H10.5V18H7.5V9.00002H4.5Z" fill="white"/>
</svg>
